<svg xmlns="http://www.w3.org/2000/svg" version="1.1" x="0" y="0" viewBox="0 0 80 80" enable-background="new 0 0 80 80" xml:space="preserve">
  <rect x="39" y="51" fill="#000000" width="2" height="10"/>
  <rect x="11" y="60" fill="#000000" width="58" height="2"/>
  <path fill="#000000" d="M50.56 52H29.51C27.02 52 25 49.98 25 47.49V30h2v17.49C27 48.88 28.12 50 29.51 50H50.56c1.38 0 2.51-1.12 2.51-2.51V30h2v17.49C55.07 49.98 53.04 52 50.56 52z"/>
  <polygon fill="#000000" points="59.38 35.78 40 20.28 20.63 35.78 19.38 34.22 40 17.72 60.63 34.22 "/>
  <polygon fill="#000000" points="45 51 43 51 43 39 37 39 37 51 35 51 35 37 45 37 "/>
</svg>
