<svg xmlns="http://www.w3.org/2000/svg" xmlns:xlink="http://www.w3.org/1999/xlink" version="1.1" x="0px" y="0px" viewBox="0 0 80 80" enable-background="new 0 0 80 80" xml:space="preserve"><g><g><rect x="39" y="51" fill="#000000" width="2" height="10"></rect></g><g><rect x="11" y="60" fill="#000000" width="58" height="2"></rect></g><g><path fill="#000000" d="M50.56,52H29.506C27.021,52,25,49.979,25,47.494V30h2v17.494C27,48.876,28.124,50,29.506,50H50.56    c1.382,0,2.506-1.124,2.506-2.506V30h2v17.494C55.065,49.979,53.044,52,50.56,52z"></path></g><g><polygon fill="#000000" points="59.375,35.781 40,20.281 20.625,35.781 19.375,34.219 40,17.719 60.625,34.219   "></polygon></g><g><polygon fill="#000000" points="45,51 43,51 43,39 37,39 37,51 35,51 35,37 45,37   "></polygon></g></g></svg>