<?xml version="1.0" encoding="utf-8"?>
<!-- Generator: Adobe Illustrator 18.1.1, SVG Export Plug-In . SVG Version: 6.00 Build 0)  -->
<svg version="1.1" id="Calque_1" xmlns="http://www.w3.org/2000/svg" xmlns:xlink="http://www.w3.org/1999/xlink" x="0px" y="0px"
	 viewBox="0 0 229 428.5" enable-background="new 0 0 229 428.5" xml:space="preserve">
<g>
	<path fill="#717171" d="M-74.7,64v696.4c0,36.6-29.5,66.1-66.1,66.2h-362.4c0.1,0.8,0.3,1.6,0.3,2.4V871
		c0,15.6,31.8,42.6,41.2,56.4c2.8,2.1,4.8,5.4,4.8,9.1v4.4c0,6.6-5.4,11.9-12,11.9h-355.2c-6.6,0-11.9-5.3-11.9-11.9v-4.4
		c0-3.7,1.9-6.9,4.7-9.1c9.4-13.8,41.2-40.8,41.2-56.4v-41.9c0-0.8,0.2-1.6,0.3-2.4h-354.6c-36.5-0.2-66-29.7-66-66.2V64
		c0-36.7,29.5-66.2,66-66.2h1003.9C-104.3-2.2-74.7,27.3-74.7,64z M-630.7,27.1c0-6.7-5.4-12.1-12-12.1c-6.7,0-12.1,5.4-12.1,12.1
		c0,6.6,5.4,12,12.1,12C-636.1,39.1-630.7,33.7-630.7,27.1z"/>
	<rect x="-1155.2" y="56.9" fill="#717171" width="1024.8" height="710.7"/>
</g>
<image overflow="visible" width="1024" height="710" xlink:href="../../../Desktop/psychologue-ussel-desktop.png"  transform="matrix(1 0 0 1 -1155.1672 56.8502)">
</image>
<path fill="#3C3C3B" d="M204.4-0.5h-180C11-0.5,0,11,0,24.6v379.8c0,13.6,11,24.1,24.5,24.1h180c13.5,0,24.6-10.5,24.6-24.1V24.6
	C229,11,217.9-0.5,204.4-0.5z M97,36.5h34.8c2.3,0,4.1,1.7,4.1,4c0,2.3-1.9,4-4.1,4H97c-2.3,0-4.1-1.7-4.1-4
	C92.9,38.2,94.8,36.5,97,36.5z M128,409.5c0,2.8-2.9,5-5.8,5h-15.8c-2.8,0-5.5-2.2-5.5-5v-15.8c0-2.8,2.7-5.2,5.5-5.2h15.8
	c2.8,0,5.8,2.4,5.8,5.2V409.5z M219,370.5H11v-312h208V370.5z"/>
</svg>
