<svg xmlns="http://www.w3.org/2000/svg" xmlns:xlink="http://www.w3.org/1999/xlink" version="1.1" x="0px" y="0px" viewBox="0 0 80 80" enable-background="new 0 0 80 80" xml:space="preserve"><g><g><path fill="#000000" d="M70,65H11c-1.654,0-3-1.346-3-3V17c0-1.654,1.346-3,3-3h59c1.654,0,3,1.346,3,3v45    C73,63.654,71.654,65,70,65z M11,16c-0.551,0-1,0.449-1,1v45c0,0.551,0.449,1,1,1h59c0.552,0,1-0.449,1-1V17c0-0.551-0.448-1-1-1    H11z"></path></g><g><rect x="10" y="22" fill="#000000" width="62" height="2"></rect></g><g><rect x="12" y="18" fill="#000000" width="2" height="2"></rect></g><g><rect x="16" y="18" fill="#000000" width="2" height="2"></rect></g><g><rect x="20" y="18" fill="#000000" width="2" height="2"></rect></g></g><g><g><polygon fill="#000000" points="31.293,52.707 22.586,44 31.293,35.293 32.707,36.707 25.414,44 32.707,51.293   "></polygon></g><g><polygon fill="#000000" points="47.707,52.707 46.293,51.293 53.586,44 46.293,36.707 47.707,35.293 56.414,44   "></polygon></g><g><rect x="38.5" y="32.432" transform="matrix(0.9486 0.3164 -0.3164 0.9486 15.7912 -10.2625)" fill="#000000" width="2" height="22.136"></rect></g></g></svg>