<?xml version="1.0" encoding="utf-8"?>
<!-- Generator: Adobe Illustrator 19.2.1, SVG Export Plug-In . SVG Version: 6.00 Build 0)  -->
<svg version="1.1" id="svg-burger" xmlns="http://www.w3.org/2000/svg" xmlns:xlink="http://www.w3.org/1999/xlink" x="0px" y="0px"
	 viewBox="0 0 100 100" style="enable-background:new 0 0 100 100;" xml:space="preserve">
<style type="text/css">
	.st0{fill:#FF9B30;}
	.st1{fill:#8E3F0A;}
	.st2{fill:#99C600;}
	.st3{fill:#FF0000;}
	.st4{fill:#FFE4C5;}
</style>
<path class="st0" d="M77.5,80.5H22.3c-4.3,0-7.9,3.5-7.9,7.9v3.7c0,4.3,3.5,7.9,7.9,7.9h55.1c4.3,0,7.9-3.5,7.9-7.9v-3.7
	C85.3,84.1,81.8,80.5,77.5,80.5z M78,92.1c0,0.3-0.2,0.5-0.5,0.5c-58.3,0-55.6,0.3-55.6-0.5v-3.7c0-0.8-2.7-0.5,55.6-0.5
	c0.3,0,0.5,0.2,0.5,0.5C78,88.4,78,92.1,78,92.1z"/>
<path class="st1" d="M81.1,62.9H18.9c-2.3,0-4.2,1.9-4.2,4.2v5.3c0,2.3,1.9,4.2,4.2,4.2h62.3c2.3,0,4.2-1.9,4.2-4.2v-5.3
	C85.3,64.8,83.5,62.9,81.1,62.9z"/>
<path class="st2" d="M81.9,46.5c-9.2,0-9.8,5.9-15.9,5.9c-6.1,0-6.7-5.9-15.9-5.9c-9.2,0-9.8,5.9-15.9,5.9c-6.1,0-6.7-5.9-15.9-5.9
	c-4.9,0-4.9,7.4,0,7.4c6.1,0,6.7,5.9,15.9,5.9c9.2,0,9.8-5.9,15.9-5.9c6.1,0,6.7,5.9,15.9,5.9c9.2,0,9.8-5.9,15.9-5.9
	C86.8,53.9,86.8,46.5,81.9,46.5z"/>
<path class="st3" d="M18.1,42.1h63.6c4.9,0,4.9-7.4,0-7.4H18.1c-2,0-3.7,1.7-3.7,3.7C14.4,40.5,16.1,42.1,18.1,42.1z"/>
<g>
	<path class="st0" d="M18.2,30.3h63.5c2,0,3.7-1.7,3.7-3.7C85.3,14.5,79.2,0,49.9,0C20.6,0,14.5,14.5,14.5,26.6
		C14.5,28.6,16.1,30.3,18.2,30.3z M49.9,7.4c22.6,0,27,9.4,27.8,15.5H22.1C22.9,16.8,27.3,7.4,49.9,7.4z"/>
	<path class="st4" d="M42,13c0,3.3-4.9,3.3-4.9,0C37.1,9.7,42,9.7,42,13z"/>
	<path class="st4" d="M46.5,16.1c3.3,0,3.3,4.9,0,4.9C43.3,21,43.3,16.1,46.5,16.1z"/>
	<path class="st4" d="M55,11.5c0,3.3-4.9,3.3-4.9,0C50.1,8.3,55,8.3,55,11.5z"/>
	<path class="st4" d="M63,17.5c0,3.3-4.9,3.3-4.9,0C58.1,14.2,63,14.2,63,17.5z"/>
</g>
</svg>
