<?xml version="1.0" encoding="utf-8"?>
<!-- Generator: Adobe Illustrator 19.2.1, SVG Export Plug-In . SVG Version: 6.00 Build 0)  -->
<svg version="1.1" id="Calque_1" xmlns:dc="http://purl.org/dc/elements/1.1/" xmlns:xl="http://www.w3.org/1999/xlink"
	 xmlns="http://www.w3.org/2000/svg" xmlns:xlink="http://www.w3.org/1999/xlink" x="0px" y="0px" viewBox="0 0 100 100"
	 style="enable-background:new 0 0 100 100;" xml:space="preserve">
<style type="text/css">
	.st0{fill:#673AB7;}
	.st1{fill:#C7528C;}
</style>
<path id="ciseau-2" class="st0" d="M37.2,51.3L37.2,51.3L37.2,51.3c-0.2,0.9-0.7,1.7-1.6,2.2L6,68.8c0,0,11.6,16.7,23,11
	c8-4,6.9-13.3,5-19l57.8-32.3c0.1,0,0.2-0.1,0.2-0.2c0.4-0.4,0.4-1.1,0-1.5l-0.1-0.1c-0.6-0.6-1.3-0.9-2.1-0.9h-3.1
	c-0.4,0-0.8,0.1-1.2,0.3L39.5,46.2c-0.9,0.4-1.6,1.3-1.8,2.3L37.2,51.3z M30,61.8L30,61.8c0,0,5,11-2,15s-15-6-15-6L30,61.8z"/>
<path id="ciseau-1" class="st1" d="M35.6,38.9c2-5.7,3.1-15-4.9-19C19.3,14,7.5,30.7,7.5,30.7l83,43.3c0.9,0.5,2-0.2,2-1.2l0-1.8
	L35.6,38.9z M31.6,37.8l-17.1-9.1c0,0,8.1-9.9,15.2-5.9S31.6,37.8,31.6,37.8z"/>
</svg>
