<?xml version="1.0" encoding="utf-8"?>
<!-- Generator: Adobe Illustrator 19.2.1, SVG Export Plug-In . SVG Version: 6.00 Build 0)  -->
<svg version="1.1" id="Calque_1" xmlns="http://www.w3.org/2000/svg" xmlns:xlink="http://www.w3.org/1999/xlink" x="0px" y="0px"
	 viewBox="0 0 59 60" style="enable-background:new 0 0 59 60;" xml:space="preserve">
<style type="text/css">
	.st0{fill:#FFFFFF;}
	.st1{fill:#FFFFFF;stroke:#FFFFFF;stroke-miterlimit:10;}
	.st2{fill:none;stroke:#000000;stroke-miterlimit:10;}
</style>
<g>
	<path class="st0" d="M7,3C4.8,3,3,4.8,3,7s1.8,4,4,4s4-1.8,4-4S9.2,3,7,3z M7,9C5.9,9,5,8.1,5,7s0.9-2,2-2s2,0.9,2,2S8.1,9,7,9z"/>
	<path class="st0" d="M16,3c-2.2,0-4,1.8-4,4s1.8,4,4,4s4-1.8,4-4S18.2,3,16,3z M16,9c-1.1,0-2-0.9-2-2s0.9-2,2-2s2,0.9,2,2
		S17.1,9,16,9z"/>
	<path class="st0" d="M25,3c-2.2,0-4,1.8-4,4s1.8,4,4,4s4-1.8,4-4S27.2,3,25,3z M25,9c-1.1,0-2-0.9-2-2s0.9-2,2-2s2,0.9,2,2
		S26.1,9,25,9z"/>
	<path class="st1" d="M0,0v12v2v46h59V14v-2V0H0z M57,58H2V14h55V58z M2,12V2h55v10H2z"/>
	<path class="st2" d="M19,48H4v8h15V48z M17,54H6v-4h11V54z"/>
	<path class="st2" d="M37,42H22v14h15V42z M35,54H24V44h11V54z"/>
	<path class="st2" d="M19,16H4v8h15V16z M17,22H6v-4h11V22z"/>
	<path class="st2" d="M37,16H22v15h15V16z M35,29H24V18h11V29z"/>
	<path class="st2" d="M19,26H4v20h15V26z M17,44H6V28h11V44z"/>
	<path class="st2" d="M55,46H40v10h15V46z M53,54H42v-6h11V54z"/>
	<path class="st2" d="M55,16H40v11h15V16z M53,25H42v-7h11V25z"/>
	<path class="st2" d="M55,29H40v15h15V29z M53,42H42V31h11V42z"/>
	<path class="st2" d="M37,33H22v7h15V33z M35,38H24v-3h11V38z"/>
</g>
</svg>
