<?xml version="1.0" encoding="utf-8"?>
<!-- Generator: Adobe Illustrator 19.2.1, SVG Export Plug-In . SVG Version: 6.00 Build 0)  -->
<svg version="1.1" xmlns="http://www.w3.org/2000/svg" xmlns:xlink="http://www.w3.org/1999/xlink" x="0px" y="0px"
	 viewBox="0 0 50 74" style="enable-background:new 0 0 50 74;" xml:space="preserve">
<g id="svg-robot">
	<path id="bras-2" d="M2,27v5l3-3l3,3v-5c0-1.7,1.3-3,3-3v-6C6,18,2,22,2,27z"/>
	<path id="bras-1" d="M39,18v6c1.7,0,3,1.3,3,3v5l3-3l3,3v-5C48,22,44,18,39,18z"/>
	<g id="robot-foots">
		<path d="M28,51v20c0,1.7-1.3,3-3,3s-3-1.3-3-3V51H28z"/>
		<path d="M41,43H9c-5,0-9,4-9,9v19c0,4,6,4,6,0V52c0-1.7,1.3-3,3-3h32c1.7,0,3,1.3,3,3v19c0,4,6,4,6,0V52C50,47,46,43,41,43z"/>
	</g>
	<g>
		<path d="M43,6c0,3.2-2.7,5.9-6,6c0,3.7,0,25.6,0,29H13V12c-3.3,0-6-2.7-6-6s2.7-6,6-6h24C40.3,0,43,2.7,43,6z M37,3H13
			c-4,0-4,6,0,6h24C41,9,41,3,37,3z M35.5,6c0,2,3,2,3,0C38.5,4,35.5,4,35.5,6z M13,7.5c2,0,2-3,0-3C11,4.5,11,7.5,13,7.5z M25,7.5
			c2,0,2-3,0-3C23,4.5,23,7.5,25,7.5z M28.5,23c-6.8,0-8.5-0.4-8.5,1.5c0,1.9,1.7,1.5,8.5,1.5C30.5,26,30.5,23,28.5,23z M21.5,30
			c-2,0-2,3,0,3c6.8,0,8.5,0.4,8.5-1.5C30,29.6,28.3,30,21.5,30z M29,19L29,19c1.3-0.6,1.3-2.4,0-2.9V16h-7.5
			c-0.8,0-1.5,0.7-1.5,1.5C20,19.4,21.7,19,29,19z"/>
	</g>
</g>
<g id="Calque_2">
</g>
</svg>
